<?xml version="1.0" encoding="utf-8"?>
<!-- Generator: Adobe Illustrator 19.0.0, SVG Export Plug-In . SVG Version: 6.00 Build 0)  -->
<svg version="1.1" id="Layer_1" xmlns="http://www.w3.org/2000/svg" xmlns:xlink="http://www.w3.org/1999/xlink" x="0px" y="0px"
	 viewBox="-125 267 708.5 28" style="enable-background:new -125 267 708.5 28;" xml:space="preserve">
<style type="text/css">
	.st0{fill:#FFFFFF;}
</style>
<g>
	<path class="st0" d="M-101.8,267.2v27h-2.1v-5.5h-19v5.5h-2.1v-27h2.1v13.9h4.6c-0.6-0.6-1-1.3-1.3-2.1c-0.3-0.8-0.5-1.6-0.5-2.5
		s0.2-1.8,0.5-2.6c0.3-0.8,0.8-1.5,1.4-2.1c0.7-0.6,1.4-1.1,2.2-1.5c0.8-0.3,1.7-0.5,2.6-0.5s1.8,0.2,2.6,0.5
		c0.8,0.3,1.5,0.8,2.1,1.4c0.6,0.6,1.1,1.3,1.4,2.1c0.3,0.8,0.5,1.7,0.5,2.6s-0.2,1.7-0.5,2.5c-0.3,0.8-0.7,1.5-1.3,2.1h4.6v-13.8
		H-101.8z M-103.9,283.2h-19v3.4h18.9L-103.9,283.2L-103.9,283.2z M-113.4,271.9c-0.6,0-1.2,0.1-1.8,0.4c-0.6,0.2-1.1,0.6-1.5,1
		c-0.3,0.4-0.6,0.9-0.9,1.4c-0.2,0.6-0.3,1.2-0.3,1.8s0.1,1.2,0.4,1.8c0.2,0.6,0.6,1,1,1.4c0.4,0.4,0.9,0.7,1.5,1
		c0.6,0.2,1.2,0.4,1.8,0.4c0.6,0,1.2-0.1,1.7-0.4c0.5-0.3,1-0.6,1.4-1c0.4-0.4,0.7-0.9,1-1.4c0.2-0.6,0.4-1.1,0.4-1.8
		c0-0.6-0.1-1.2-0.4-1.8c-0.2-0.6-0.6-1-1-1.4c-0.4-0.4-0.9-0.7-1.4-1C-112,272-112.7,271.9-113.4,271.9z M-113.4,277.9
		c-0.4,0-0.8-0.1-1-0.4c-0.3-0.3-0.4-0.6-0.4-1s0.1-0.7,0.4-1c0.3-0.3,0.6-0.4,1-0.4s0.7,0.1,1,0.4c0.3,0.3,0.4,0.6,0.4,1
		s-0.1,0.7-0.4,1C-112.6,277.7-113,277.9-113.4,277.9z"/>
	<path class="st0" d="M-89.2,294.3v-27h2.1v27H-89.2z M-85,267.3h2.1v27H-85V267.3z"/>
	<path class="st0" d="M-44.5,295l-3.8-3.8c-1.2,1-2.6,1.8-4.1,2.4s-3.1,0.9-4.8,0.9c-1.9,0-3.7-0.4-5.3-1.1c-1.7-0.7-3.1-1.7-4.4-3
		c-1.2-1.2-2.2-2.7-3-4.4c-0.7-1.7-1.1-3.4-1.1-5.3c0-1.9,0.4-3.6,1.1-5.3c0.7-1.7,1.7-3.1,3-4.4c1.2-1.2,2.7-2.2,4.4-2.9
		c1.7-0.7,3.4-1.1,5.3-1.1s3.6,0.4,5.3,1.1c1.7,0.7,3.2,1.8,4.5,3.1l-1.5,1.5c-1.1-1.2-2.4-2-3.8-2.6s-2.9-0.9-4.5-0.9
		c-1.4,0-2.8,0.2-4,0.7c-1.2,0.5-2.4,1.1-3.4,1.9l7.9,7.8h13.2v1c0,1.7-0.3,3.4-0.9,4.9s-1.4,2.9-2.4,4l3.8,3.9L-44.5,295z
		 M-66.1,273.3c-0.7,0.9-1.3,1.8-1.7,2.9c-0.5,1.1-0.7,2.2-0.9,3.4h8.9L-66.1,273.3z M-57.2,292.4c1.4,0,2.7-0.2,4-0.7
		c1.2-0.5,2.4-1.1,3.4-2l-7.8-7.9h-11.1c0.1,1.5,0.5,2.9,1.2,4.2s1.5,2.4,2.5,3.4s2.2,1.7,3.6,2.2
		C-60.1,292.1-58.7,292.4-57.2,292.4z M-54.6,281.8l6.3,6.4c1.5-1.8,2.4-3.9,2.6-6.4C-45.7,281.8-54.6,281.8-54.6,281.8z"/>
	<path class="st0" d="M-8.2,267.2v27h-2.1v-5.5h-19v5.5h-2.1v-27h2.1v13.9h4.6c-0.6-0.6-1-1.3-1.3-2.1s-0.5-1.6-0.5-2.5
		s0.2-1.8,0.5-2.6c0.3-0.8,0.8-1.5,1.4-2.1c0.6-0.6,1.3-1.1,2.1-1.4c0.8-0.3,1.7-0.5,2.6-0.5s1.8,0.2,2.6,0.5
		c0.8,0.3,1.5,0.8,2.1,1.4c0.6,0.6,1.1,1.3,1.4,2.1c0.3,0.8,0.5,1.7,0.5,2.6s-0.2,1.7-0.5,2.5s-0.7,1.5-1.3,2.1h4.6v-13.9H-8.2z
		 M-10.3,283.2h-19v3.4h18.9L-10.3,283.2L-10.3,283.2z M-19.8,271.9c-0.6,0-1.2,0.1-1.8,0.4c-0.6,0.2-1,0.6-1.5,1
		c-0.5,0.4-0.7,0.9-1,1.4c-0.2,0.6-0.4,1.1-0.4,1.8c0,0.6,0.1,1.2,0.4,1.8c0.2,0.6,0.6,1,1,1.4c0.4,0.4,0.9,0.7,1.5,1
		c0.6,0.2,1.2,0.4,1.8,0.4c0.6,0,1.2-0.1,1.7-0.4c0.5-0.3,1-0.6,1.4-1c0.4-0.4,0.7-0.9,1-1.4c0.2-0.6,0.4-1.1,0.4-1.8
		c0-0.6-0.1-1.2-0.4-1.8c-0.2-0.6-0.6-1-1-1.4c-0.4-0.4-0.9-0.7-1.4-1C-18.6,272-19.1,271.9-19.8,271.9z M-19.8,277.9
		c-0.4,0-0.8-0.1-1-0.4c-0.3-0.3-0.4-0.6-0.4-1s0.1-0.7,0.4-1s0.6-0.4,1-0.4s0.7,0.1,1,0.4s0.4,0.6,0.4,1s-0.1,0.7-0.4,1
		C-19,277.7-19.4,277.9-19.8,277.9z"/>
	<path class="st0" d="M22.7,269.3v-2.1h22.1v2.1H22.7z M32.8,294.3v-20.9h-10v-2.1h22.1v2.1h-10v20.8L32.8,294.3L32.8,294.3z
		 M22.7,277.5v-2.1h8.1v2.1H22.7z M36.8,277.5v-2.1h8.1v2.1H36.8z"/>
	<path class="st0" d="M56.8,294.3v-27h2.1v27H56.8z M61,267.3h2.1v27H61V267.3z"/>
	<path class="st0" d="M101.9,267.3v27h-2.1v-12.5h-9.1l1,1c0.8,0.9,1.2,2,1.2,3.3c0,0.7-0.1,1.3-0.3,1.9s-0.5,1.1-1,1.5
		s-0.9,0.8-1.4,1c-0.6,0.3-1.1,0.4-1.8,0.4c-0.6,0-1.2-0.1-1.8-0.4s-1-0.6-1.4-1s-0.7-0.9-1-1.5c-0.2-0.6-0.4-1.2-0.4-1.9
		c0-1.2,0.4-2.3,1.2-3.2l1-1.1h-9.1v12.5h-2.1v-27h2.5l11,12l11-12C99.3,267.3,101.9,267.3,101.9,267.3z M76.9,279.6h8.9L77,270
		L76.9,279.6z M88.3,288.8c0.7,0,1.2-0.3,1.7-0.8s0.7-1.2,0.7-1.9c0-0.7-0.2-1.3-0.7-1.9l-1.7-1.9l-1.8,1.9
		c-0.2,0.2-0.4,0.5-0.5,0.8s-0.2,0.6-0.2,1c0,0.7,0.2,1.4,0.7,1.9C87.1,288.5,87.7,288.8,88.3,288.8z M88.4,273.6
		c-0.4,0-0.8-0.1-1-0.4c-0.3-0.3-0.4-0.6-0.4-1c0-0.4,0.1-0.7,0.4-1c0.3-0.3,0.6-0.4,1-0.4s0.8,0.1,1,0.4c0.3,0.3,0.4,0.6,0.4,1
		c0,0.4-0.1,0.8-0.4,1C89.1,273.4,88.8,273.6,88.4,273.6z M99.7,279.6V270l-8.9,9.6H99.7z"/>
	<path class="st0" d="M120.2,288.7l-3.4,3.4h15.7v2.1h-19.2v-27h19.2v2.1h-17.1V281h17.1v2.1h-12.1l-3.5,3.5h15.5v2.1H120.2z
		 M117.4,283.1h-2v2L117.4,283.1z M117.2,288.7h-1.8v1.8L117.2,288.7z"/>
	<path class="st0" d="M155.6,280.9c0.7,0.3,1.4,0.6,2.1,1c0.6,0.4,1.2,0.8,1.6,1.3c0.5,0.5,0.8,1.1,1.1,1.9c0.3,0.7,0.4,1.6,0.4,2.6
		c0,1.9-0.7,3.5-1.9,4.6c-0.7,0.6-1.6,1.1-2.6,1.5c-1,0.4-2.1,0.6-3.4,0.6c-0.6,0-1.2,0-1.8-0.1c-1.3-0.1-2.4-0.5-3.4-1.1
		c-0.9-0.6-1.7-1.2-2.3-1.8c-0.6-0.6-1-1.2-1.3-1.7s-0.4-0.8-0.5-0.8l2-0.8c0,0,0.1,0.2,0.3,0.4c0.1,0.3,0.4,0.6,0.6,1
		s0.6,0.8,1.1,1.2c0.4,0.4,1,0.7,1.6,1v-11.2c-1.1-0.5-1.9-1.1-2.6-1.6s-1.2-1.1-1.5-1.7c-0.4-0.6-0.6-1.2-0.7-1.8s-0.2-1.2-0.1-1.9
		c0-0.8,0.2-1.6,0.6-2.4c0.4-0.8,0.9-1.5,1.6-2.1s1.6-1.1,2.6-1.5s2.2-0.5,3.6-0.5c1.2,0,2.2,0.2,3.1,0.7c0.9,0.4,1.7,0.9,2.3,1.5
		c0.6,0.6,1.1,1.2,1.5,1.8s0.6,1.2,0.8,1.7l-2.1,0.6l1.1-0.3l-1.1,0.3c0,0,0-0.2-0.1-0.4c-0.1-0.2-0.3-0.5-0.5-0.9
		c-0.2-0.3-0.5-0.7-0.8-1.1s-0.8-0.7-1.3-1L155.6,280.9L155.6,280.9z M146.5,273.7c0,0.3,0,0.6,0,1c0,0.3,0.1,0.7,0.3,1
		c0.2,0.4,0.4,0.8,0.8,1.2s0.9,0.8,1.7,1.3V270c-0.5,0.2-0.9,0.5-1.2,0.8c-0.3,0.3-0.6,0.7-0.8,1c-0.2,0.3-0.4,0.7-0.5,1
		C146.6,273.1,146.6,273.4,146.5,273.7z M151.4,292.2c0.6,0.1,1.3,0.1,2,0v-9.9c-0.1,0-0.3-0.1-0.4-0.2s-0.3-0.1-0.4-0.2
		c-0.2-0.1-0.4-0.2-0.6-0.3s-0.4-0.2-0.6-0.3V292.2z M153.5,269.4c-0.1,0-0.2,0-0.4-0.1c-0.1,0-0.3,0-0.4,0c-0.2,0-0.5,0-0.7,0
		s-0.4,0-0.6,0.1v9.8c0.1,0,0.2,0.1,0.3,0.2c0.1,0.1,0.2,0.1,0.3,0.2c0.2,0.1,0.4,0.2,0.6,0.3s0.4,0.2,0.7,0.3v-10.8H153.5z
		 M157.4,290.7c0.8-0.7,1.2-1.8,1.2-3.1c0-1.2-0.2-2.1-0.7-2.7s-1.3-1.2-2.4-1.7v8.6c0.4-0.2,0.7-0.3,1-0.5
		C156.9,291.1,157.2,290.9,157.4,290.7z"/>
	<path class="st0" d="M193.4,294.2h-1.5v-27h19.2v2.1H194V281h17.1v2.1H199l-3.5,3.5H211v2.1h-12.2L193.4,294.2z M196,283.2h-2v2
		L196,283.2z M195.8,288.8H194v1.8L195.8,288.8z"/>
	<path class="st0" d="M236.2,267c1.9,0,3.7,0.4,5.4,1.1c1.7,0.7,3.1,1.7,4.4,3c1.2,1.2,2.2,2.7,3,4.4c0.7,1.7,1.1,3.5,1.1,5.3
		c0,1.9-0.4,3.7-1.1,5.3c-0.7,1.7-1.7,3.1-3,4.4c-1.2,1.2-2.7,2.2-4.4,3c-1.7,0.7-3.5,1.1-5.4,1.1s-3.7-0.4-5.4-1.1
		c-1.7-0.7-3.1-1.7-4.4-3c-1.2-1.2-2.2-2.7-3-4.4c-0.7-1.7-1.1-3.4-1.1-5.3c0-1.9,0.4-3.7,1.1-5.3c0.7-1.7,1.7-3.1,3-4.4
		c1.2-1.2,2.7-2.2,4.4-3C232.6,267.4,234.3,267,236.2,267z M224.6,280.8c0,1.5,0.3,2.9,0.8,4.3s1.3,2.6,2.3,3.6s2.1,1.9,3.4,2.5
		c1.3,0.7,2.7,1.1,4.2,1.2v-4c-0.9-0.1-1.8-0.4-2.6-0.9c-0.8-0.5-1.5-1-2.1-1.7c-0.6-0.7-1.1-1.5-1.4-2.3c-0.3-0.9-0.5-1.8-0.5-2.8
		s0.2-1.9,0.5-2.8s0.8-1.7,1.4-2.3c0.6-0.7,1.3-1.2,2.1-1.7c0.8-0.4,1.7-0.7,2.6-0.8v-4c-1.5,0.1-2.9,0.5-4.2,1.2
		c-1.3,0.7-2.4,1.5-3.4,2.5s-1.7,2.2-2.3,3.6C224.9,277.8,224.6,279.2,224.6,280.8z M236.2,286.4c0.8,0,1.5-0.2,2.2-0.5
		c0.7-0.3,1.3-0.7,1.8-1.2s0.9-1.1,1.2-1.8c0.3-0.7,0.4-1.4,0.4-2.2c0-0.8-0.1-1.5-0.4-2.2s-0.7-1.3-1.2-1.8s-1.1-0.9-1.8-1.2
		c-0.7-0.3-1.4-0.5-2.2-0.5c-0.8,0-1.5,0.2-2.2,0.5s-1.3,0.7-1.8,1.2s-0.9,1.1-1.2,1.8s-0.4,1.4-0.4,2.2c0,0.8,0.1,1.5,0.4,2.2
		c0.3,0.7,0.7,1.3,1.2,1.8s1.1,0.9,1.8,1.2C234.7,286.2,235.5,286.4,236.2,286.4z M236.2,279.3c0.4,0,0.7,0.1,1,0.4
		c0.3,0.3,0.4,0.6,0.4,1c0,0.4-0.1,0.7-0.4,1c-0.3,0.3-0.6,0.4-1,0.4s-0.7-0.1-1-0.4c-0.3-0.3-0.4-0.6-0.4-1c0-0.4,0.1-0.7,0.4-1
		C235.5,279.5,235.8,279.3,236.2,279.3z M237.3,292.4c1.5-0.1,2.9-0.5,4.1-1.2c1.2-0.7,2.4-1.5,3.4-2.5s1.7-2.2,2.2-3.6
		s0.8-2.8,0.8-4.3s-0.3-2.9-0.8-4.3s-1.3-2.6-2.2-3.6s-2.1-1.9-3.4-2.5s-2.7-1.1-4.1-1.2v4c0.9,0.1,1.8,0.4,2.6,0.8
		c0.8,0.4,1.5,1,2.1,1.7c0.6,0.7,1.1,1.5,1.4,2.3c0.3,0.9,0.5,1.8,0.5,2.8s-0.2,1.9-0.5,2.8s-0.8,1.6-1.4,2.3
		c-0.6,0.7-1.3,1.3-2.1,1.7c-0.8,0.5-1.7,0.7-2.6,0.9V292.4z"/>
	<path class="st0" d="M284.3,294.3h-2.7l-4.7-6c-0.8,0.3-1.6,0.5-2.2,0.5c-0.3,0-0.5,0-0.8,0.1c-0.2,0-0.5,0-0.8,0h-10.5v5.4h-2.1
		v-27h12.6c1.5,0,2.9,0.3,4.2,0.8c1.3,0.6,2.5,1.3,3.4,2.3c1,1,1.8,2.1,2.3,3.4c0.6,1.3,0.8,2.7,0.8,4.2c0,2-0.5,3.8-1.4,5.4
		s-2.2,2.9-3.8,3.9L284.3,294.3z M274.4,286.6c1.1-0.1,2-0.5,3-1c0.9-0.5,1.7-1.1,2.4-1.9c0.7-0.8,1.2-1.6,1.6-2.6s0.6-2,0.6-3.1
		c0-1.2-0.2-2.3-0.7-3.3c-0.5-1.1-1.1-2-1.9-2.8c-0.8-0.8-1.7-1.4-2.8-1.9c-1.1-0.5-2.2-0.7-3.4-0.7h-10.5v3.2h10.6
		c0.7,0,1.4,0.1,2.1,0.4c0.6,0.3,1.2,0.7,1.7,1.2s0.9,1.1,1.2,1.7c0.3,0.7,0.4,1.4,0.4,2.1c0,0.7-0.1,1.4-0.4,2.1
		c-0.3,0.6-0.7,1.2-1.2,1.7s-1,0.9-1.7,1.2c-0.6,0.3-1.3,0.4-2.1,0.4h-10.6v3.4h10.4c0,0,0.1,0,0.4,0
		C273.7,286.7,274,286.7,274.4,286.6z M262.7,281.2h10.6c0.9,0,1.7-0.3,2.3-0.9c0.6-0.6,0.9-1.4,0.9-2.3s-0.3-1.7-0.9-2.3
		c-0.6-0.6-1.4-0.9-2.3-0.9h-10.6V281.2z M274.7,278c0,0.4-0.1,0.7-0.4,1s-0.6,0.4-1,0.4s-0.7-0.1-1-0.4s-0.4-0.6-0.4-1
		s0.1-0.7,0.4-1s0.6-0.4,1-0.4s0.7,0.1,1,0.4S274.7,277.6,274.7,278z"/>
	<path class="st0" d="M333.2,292.1v2.1h-19v-27h2.1v24.9h2.1v-24.9h2.1v24.9H333.2z"/>
	<path class="st0" d="M357.7,267c1.9,0,3.7,0.4,5.4,1.1c1.7,0.7,3.1,1.7,4.4,3c1.2,1.2,2.2,2.7,3,4.4c0.7,1.7,1.1,3.5,1.1,5.3
		c0,1.9-0.4,3.7-1.1,5.3c-0.7,1.7-1.7,3.1-3,4.4c-1.2,1.2-2.7,2.2-4.4,3c-1.7,0.7-3.5,1.1-5.4,1.1s-3.7-0.4-5.4-1.1
		c-1.7-0.7-3.1-1.7-4.4-3c-1.2-1.2-2.2-2.7-3-4.4c-0.7-1.7-1.1-3.4-1.1-5.3c0-1.9,0.4-3.7,1.1-5.3c0.7-1.7,1.7-3.1,3-4.4
		c1.2-1.2,2.7-2.2,4.4-3C354,267.4,355.8,267,357.7,267z M346.1,280.8c0,1.5,0.3,2.9,0.8,4.3s1.3,2.6,2.3,3.6s2.1,1.9,3.4,2.5
		c1.3,0.7,2.7,1.1,4.2,1.2v-4c-0.9-0.1-1.8-0.4-2.6-0.9c-0.8-0.5-1.5-1-2.1-1.7c-0.6-0.7-1.1-1.5-1.4-2.3c-0.3-0.9-0.5-1.8-0.5-2.8
		s0.2-1.9,0.5-2.8s0.8-1.7,1.4-2.3c0.6-0.7,1.3-1.2,2.1-1.7c0.8-0.4,1.7-0.7,2.6-0.8v-4c-1.5,0.1-2.9,0.5-4.2,1.2
		c-1.3,0.7-2.4,1.5-3.4,2.5s-1.7,2.2-2.3,3.6C346.3,277.8,346.1,279.2,346.1,280.8z M357.7,286.4c0.8,0,1.5-0.2,2.2-0.5
		c0.7-0.3,1.3-0.7,1.8-1.2s0.9-1.1,1.2-1.8c0.3-0.7,0.4-1.4,0.4-2.2c0-0.8-0.1-1.5-0.4-2.2s-0.7-1.3-1.2-1.8s-1.1-0.9-1.8-1.2
		c-0.7-0.3-1.4-0.5-2.2-0.5c-0.8,0-1.5,0.2-2.2,0.5s-1.3,0.7-1.8,1.2s-0.9,1.1-1.2,1.8s-0.4,1.4-0.4,2.2c0,0.8,0.1,1.5,0.4,2.2
		c0.3,0.7,0.7,1.3,1.2,1.8s1.1,0.9,1.8,1.2C356.2,286.2,356.9,286.4,357.7,286.4z M357.7,279.3c0.4,0,0.7,0.1,1,0.4
		c0.3,0.3,0.4,0.6,0.4,1c0,0.4-0.1,0.7-0.4,1c-0.3,0.3-0.6,0.4-1,0.4s-0.7-0.1-1-0.4c-0.3-0.3-0.4-0.6-0.4-1c0-0.4,0.1-0.7,0.4-1
		C357,279.5,357.3,279.3,357.7,279.3z M358.8,292.4c1.5-0.1,2.9-0.5,4.1-1.2c1.2-0.7,2.4-1.5,3.4-2.5s1.7-2.2,2.2-3.6
		s0.8-2.8,0.8-4.3s-0.3-2.9-0.8-4.3s-1.3-2.6-2.2-3.6s-2.1-1.9-3.4-2.5s-2.7-1.1-4.1-1.2v4c0.9,0.1,1.8,0.4,2.6,0.8
		c0.8,0.4,1.5,1,2.1,1.7c0.6,0.7,1.1,1.5,1.4,2.3c0.3,0.9,0.5,1.8,0.5,2.8s-0.2,1.9-0.5,2.8s-0.8,1.6-1.4,2.3
		c-0.6,0.7-1.3,1.3-2.1,1.7c-0.8,0.5-1.7,0.7-2.6,0.9V292.4z"/>
	<path class="st0" d="M421,267.2l-12.5,27h-2.3l-5.3-11.6l-5.3,11.6h-2.3l-12.5-27h2.3l11.3,24.4l5.3-11.5l-5.9-12.9h2.3l4.8,10.3
		l4.8-10.3h2.3l-5.9,12.9l5.2,11.5l11.3-24.4C418.6,267.2,421,267.2,421,267.2z M394.4,283.5c-0.4,0-0.8-0.1-1-0.4
		c-0.3-0.3-0.4-0.6-0.4-1s0.1-0.8,0.4-1c0.3-0.3,0.6-0.4,1-0.4s0.7,0.1,1,0.4c0.3,0.3,0.4,0.6,0.4,1s-0.1,0.7-0.4,1
		C395.2,283.3,394.8,283.5,394.4,283.5z M405.9,282.1c0-0.4,0.1-0.8,0.4-1c0.3-0.2,0.6-0.4,1-0.4s0.8,0.1,1,0.4
		c0.3,0.3,0.4,0.6,0.4,1s-0.1,0.7-0.4,1c-0.3,0.3-0.6,0.4-1,0.4s-0.7-0.1-1-0.4C406,282.8,405.9,282.5,405.9,282.1z"/>
	<path class="st0" d="M469.8,292.1v2.1h-19v-27h2.1v24.9h2.1v-24.9h2.1v24.9H469.8z"/>
	<path class="st0" d="M481.8,294.3v-27h2.1v27H481.8z M486,267.3h2.1v27H486V267.3z"/>
	<path class="st0" d="M525.7,267.2l-12.5,27h-2.3l-12.5-27h2.3l3.9,8.4h14.8l3.9-8.4C523.3,267.2,525.7,267.2,525.7,267.2z
		 M518.4,277.8h-12.9l6.4,14L518.4,277.8z M512.1,280.7c0.4,0,0.7,0.1,1,0.4c0.3,0.3,0.4,0.6,0.4,1s-0.1,0.8-0.4,1
		c-0.3,0.3-0.6,0.4-1,0.4s-0.7-0.1-1-0.4c-0.3-0.3-0.4-0.6-0.4-1s0.1-0.7,0.4-1C511.3,280.8,511.7,280.7,512.1,280.7z"/>
	<path class="st0" d="M542.9,288.7l-3.4,3.4h15.7v2.1H536v-27h19.2v2.1h-17.1V281h17.1v2.1h-12.1l-3.5,3.5h15.5v2.1H542.9z
		 M540.1,283.1h-2v2L540.1,283.1z M539.9,288.7h-1.8v1.8L539.9,288.7z"/>
	<path class="st0" d="M578.3,280.9c0.7,0.3,1.4,0.6,2.1,1c0.6,0.4,1.2,0.8,1.6,1.3c0.5,0.5,0.8,1.1,1.1,1.9c0.3,0.7,0.4,1.6,0.4,2.6
		c0,1.9-0.7,3.5-1.9,4.6c-0.7,0.6-1.6,1.1-2.6,1.5c-1,0.4-2.1,0.6-3.4,0.6c-0.6,0-1.2,0-1.8-0.1c-1.3-0.1-2.4-0.5-3.4-1.1
		c-0.9-0.6-1.7-1.2-2.3-1.8s-1-1.2-1.3-1.7s-0.4-0.8-0.5-0.8l2-0.8c0,0,0.1,0.2,0.3,0.4c0.1,0.3,0.4,0.6,0.6,1s0.6,0.8,1.1,1.2
		c0.4,0.4,1,0.7,1.6,1v-11.2c-1.1-0.5-1.9-1.1-2.6-1.6s-1.2-1.1-1.5-1.7c-0.4-0.6-0.6-1.2-0.7-1.8c-0.1-0.6-0.2-1.2-0.1-1.9
		c0-0.8,0.2-1.6,0.6-2.4c0.4-0.8,0.9-1.5,1.6-2.1c0.7-0.6,1.6-1.1,2.6-1.5s2.2-0.5,3.6-0.5c1.2,0,2.2,0.2,3.1,0.7
		c0.9,0.4,1.7,0.9,2.3,1.5c0.6,0.6,1.1,1.2,1.5,1.8s0.6,1.2,0.8,1.7l-2.1,0.8l1.1-0.3l-1.1,0.3c0,0,0-0.2-0.1-0.4
		c-0.1-0.2-0.3-0.5-0.5-0.9c-0.2-0.3-0.5-0.7-0.8-1.1s-0.8-0.7-1.3-1L578.3,280.9L578.3,280.9z M569.3,273.7c0,0.3,0,0.6,0,1
		c0,0.3,0.1,0.7,0.3,1c0.2,0.4,0.4,0.8,0.8,1.2s0.9,0.8,1.7,1.3V270c-0.5,0.2-0.9,0.5-1.2,0.8c-0.3,0.3-0.6,0.7-0.8,1
		c-0.2,0.3-0.4,0.7-0.5,1C569.3,273.1,569.3,273.4,569.3,273.7z M574.2,292.2c0.6,0.1,1.3,0.1,2,0v-9.9c-0.1,0-0.3-0.1-0.4-0.2
		s-0.3-0.1-0.4-0.2c-0.2-0.1-0.4-0.2-0.6-0.3c-0.2-0.1-0.4-0.2-0.6-0.3V292.2z M576.2,269.4c-0.1,0-0.2,0-0.4-0.1
		c-0.1,0-0.3,0-0.4,0c-0.2,0-0.5,0-0.7,0s-0.4,0-0.6,0.1v9.8c0.1,0,0.2,0.1,0.3,0.2s0.2,0.1,0.3,0.2c0.2,0.1,0.4,0.2,0.6,0.3
		c0.2,0.1,0.4,0.2,0.7,0.3v-10.8H576.2z M580.2,290.7c0.8-0.7,1.2-1.8,1.2-3.1c0-1.2-0.2-2.1-0.7-2.7s-1.3-1.2-2.4-1.7v8.6
		c0.4-0.2,0.7-0.3,1-0.5C579.6,291.1,579.9,290.9,580.2,290.7z"/>
</g>
</svg>
