<?xml version="1.0" encoding="utf-8"?>
<!-- Generator: Adobe Illustrator 20.0.0, SVG Export Plug-In . SVG Version: 6.00 Build 0)  -->
<svg version="1.1" id="Layer_1" xmlns="http://www.w3.org/2000/svg" xmlns:xlink="http://www.w3.org/1999/xlink" x="0px" y="0px"
	 viewBox="0 0 792 1224" style="enable-background:new 0 0 792 1224;" xml:space="preserve">
<style type="text/css">
	.st0{fill:#FFFFFF;}
</style>
<g>
	<path class="st0" d="M97.648,224.099v-2.243h23.38v2.243H97.648z M108.216,250.406v-21.974H97.648v-2.243h23.38v2.243h-10.568
		v21.974H108.216z M97.648,232.729v-2.243h8.516v2.243H97.648z M112.512,232.729v-2.243h8.516v2.243H112.512z"/>
	<path class="st0" d="M171.551,221.856v28.55h-2.243v-5.854h-19.997v5.854h-2.243v-28.55h2.243v14.636l4.904,0
		c-0.583-0.661-1.052-1.398-1.407-2.211c-0.355-0.814-0.532-1.691-0.532-2.632c0-0.966,0.184-1.88,0.551-2.745
		c0.367-0.864,0.875-1.615,1.521-2.25c0.646-0.635,1.394-1.137,2.243-1.506c0.849-0.368,1.768-0.553,2.756-0.553
		c0.963,0,1.869,0.185,2.718,0.553c0.849,0.369,1.59,0.871,2.224,1.506c0.633,0.636,1.134,1.386,1.501,2.25
		c0.367,0.865,0.551,1.78,0.551,2.746c0,0.941-0.165,1.818-0.494,2.632c-0.33,0.814-0.786,1.551-1.369,2.211h4.828v-14.636H171.551z
		 M169.308,238.697h-19.997v3.611h19.997V238.697z M159.348,226.836c-0.66,0-1.287,0.128-1.882,0.382
		c-0.596,0.254-1.109,0.598-1.54,1.03c-0.431,0.433-0.773,0.941-1.026,1.527c-0.253,0.585-0.38,1.208-0.38,1.87
		c0,0.662,0.126,1.286,0.38,1.871s0.595,1.094,1.026,1.527c0.431,0.432,0.944,0.776,1.54,1.03c0.595,0.254,1.222,0.381,1.882,0.381
		c0.659,0,1.273-0.127,1.844-0.381c0.57-0.254,1.07-0.598,1.501-1.03c0.431-0.433,0.773-0.942,1.026-1.527
		c0.253-0.585,0.38-1.208,0.38-1.871c0-0.662-0.127-1.285-0.38-1.87c-0.253-0.585-0.596-1.094-1.026-1.527
		c-0.431-0.432-0.931-0.776-1.501-1.03C160.622,226.964,160.007,226.836,159.348,226.836z M159.367,233.109
		c-0.437,0-0.796-0.144-1.078-0.431c-0.283-0.288-0.424-0.632-0.424-1.033c0-0.425,0.141-0.782,0.424-1.07
		c0.282-0.287,0.641-0.432,1.078-0.432c0.41,0,0.763,0.145,1.058,0.432c0.295,0.288,0.443,0.645,0.443,1.07
		c0,0.4-0.148,0.745-0.443,1.033C160.13,232.965,159.777,233.109,159.367,233.109z"/>
	<path class="st0" d="M205.424,244.552l-3.574,3.611h16.537v2.243h-20.263v-28.512h20.263v2.243h-18.02v12.242h18.02v2.243h-12.735
		l-3.688,3.688h16.385v2.243H205.424z M202.458,238.621h-2.091v2.091L202.458,238.621z M202.269,244.552h-1.901v1.901
		L202.269,244.552z"/>
	<path class="st0" d="M306.851,251.243l-4.029-4.03c-1.268,1.09-2.706,1.939-4.315,2.547c-1.61,0.608-3.302,0.913-5.075,0.913
		c-2.002,0-3.884-0.38-5.646-1.141c-1.762-0.76-3.302-1.799-4.619-3.117c-1.318-1.317-2.357-2.857-3.117-4.619
		c-0.76-1.761-1.141-3.643-1.141-5.646c0-1.977,0.38-3.845,1.141-5.607c0.76-1.761,1.799-3.294,3.117-4.6
		c1.317-1.305,2.857-2.338,4.619-3.099c1.761-0.76,3.643-1.14,5.646-1.14c1.977,0,3.852,0.38,5.626,1.14
		c1.773,0.76,3.345,1.851,4.714,3.27l-1.597,1.559c-1.166-1.216-2.497-2.141-3.992-2.775c-1.496-0.633-3.079-0.951-4.752-0.951
		c-1.521,0-2.94,0.246-4.258,0.737c-1.318,0.49-2.509,1.177-3.574,2.058l8.326,8.269h13.952v1.104c0,1.83-0.304,3.544-0.913,5.145
		c-0.608,1.6-1.445,3.023-2.509,4.267l4.03,4.078L306.851,251.243z M283.965,228.319c-0.735,0.912-1.344,1.933-1.825,3.06
		c-0.482,1.128-0.786,2.326-0.912,3.593l9.39,0.038L283.965,228.319z M293.432,248.429c1.495,0,2.901-0.247,4.22-0.741
		c1.317-0.494,2.509-1.185,3.574-2.072l-8.288-8.364h-11.709c0.126,1.572,0.532,3.036,1.216,4.391
		c0.684,1.356,1.571,2.541,2.661,3.555c1.089,1.014,2.351,1.806,3.783,2.376C290.32,248.144,291.835,248.429,293.432,248.429z
		 M296.169,237.252l6.69,6.729c1.597-1.901,2.509-4.144,2.737-6.729H296.169z"/>
	<path class="st0" d="M358.706,250.406h-2.894l-4.95-6.387c-0.864,0.304-1.638,0.494-2.323,0.57
		c-0.279,0.025-0.546,0.044-0.799,0.057c-0.254,0.013-0.521,0.019-0.8,0.019l-11.043,0.038v5.703h-2.243v-28.512h13.306
		c1.571,0,3.047,0.298,4.429,0.893c1.381,0.596,2.591,1.407,3.631,2.433c1.039,1.027,1.856,2.23,2.452,3.612
		c0.595,1.381,0.893,2.858,0.893,4.429c0,2.079-0.495,3.967-1.485,5.665c-0.99,1.698-2.311,3.067-3.961,4.106L358.706,250.406z
		 M348.236,242.347c1.117-0.152,2.158-0.494,3.123-1.026c0.965-0.532,1.796-1.197,2.495-1.996c0.698-0.798,1.25-1.711,1.657-2.737
		c0.406-1.026,0.609-2.123,0.609-3.289c0-1.241-0.242-2.42-0.724-3.536c-0.482-1.115-1.136-2.091-1.961-2.927
		s-1.796-1.495-2.914-1.977c-1.118-0.481-2.311-0.723-3.58-0.723h-11.045v3.384h11.24c0.787,0,1.523,0.152,2.209,0.456
		c0.686,0.304,1.283,0.71,1.791,1.216c0.508,0.507,0.914,1.109,1.219,1.806c0.305,0.697,0.458,1.438,0.458,2.224
		c0,0.786-0.153,1.521-0.458,2.205c-0.305,0.685-0.711,1.287-1.219,1.806c-0.508,0.52-1.105,0.926-1.791,1.217
		c-0.686,0.292-1.422,0.437-2.209,0.437h-11.24v3.574h11.007c0.025,0,0.152,0,0.381,0
		C347.512,242.461,347.83,242.423,348.236,242.347z M335.896,236.645h11.244c0.965,0,1.778-0.334,2.439-1.001
		c0.661-0.668,0.992-1.481,0.992-2.439c0-0.958-0.331-1.771-0.992-2.438c-0.661-0.668-1.474-1.002-2.439-1.002h-11.244V236.645z
		 M348.593,233.242c0,0.426-0.14,0.783-0.418,1.071c-0.279,0.287-0.634,0.431-1.064,0.431c-0.405,0-0.748-0.144-1.026-0.431
		c-0.279-0.288-0.418-0.645-0.418-1.071c0-0.4,0.139-0.744,0.418-1.032s0.621-0.432,1.026-0.432c0.431,0,0.786,0.144,1.064,0.432
		S348.593,232.841,348.593,233.242z"/>
	<path class="st0" d="M384.328,250.406v-28.512h2.243v28.512H384.328z M388.7,221.894h2.243v28.512H388.7V221.894z"/>
	<path class="st0" d="M428.921,236.302c0.78,0.33,1.504,0.684,2.171,1.064c0.667,0.38,1.246,0.843,1.736,1.388
		c0.491,0.545,0.881,1.197,1.171,1.958c0.289,0.76,0.435,1.673,0.435,2.737c-0.051,2.028-0.73,3.663-2.04,4.904
		c-0.756,0.634-1.663,1.172-2.721,1.616c-1.058,0.443-2.241,0.665-3.551,0.665c-0.604,0-1.222-0.038-1.852-0.114
		c-1.386-0.152-2.566-0.532-3.542-1.141s-1.774-1.254-2.396-1.939c-0.621-0.684-1.083-1.298-1.387-1.844
		c-0.305-0.545-0.47-0.842-0.494-0.894l2.091-0.836c0.024,0.025,0.113,0.177,0.266,0.456c0.152,0.279,0.38,0.615,0.685,1.007
		c0.304,0.393,0.685,0.798,1.141,1.216c0.456,0.418,1.013,0.78,1.673,1.083v-11.747c-1.124-0.557-2.03-1.121-2.72-1.691
		s-1.226-1.16-1.608-1.768c-0.383-0.608-0.632-1.229-0.746-1.863c-0.115-0.633-0.16-1.305-0.135-2.015
		c0.025-0.836,0.228-1.666,0.607-2.49c0.379-0.823,0.936-1.559,1.669-2.205c0.733-0.646,1.644-1.16,2.731-1.54
		c1.087-0.38,2.364-0.544,3.831-0.494c1.239,0.025,2.333,0.26,3.281,0.703c0.947,0.444,1.751,0.976,2.409,1.597
		s1.184,1.268,1.577,1.938c0.393,0.672,0.665,1.261,0.817,1.768l-2.205,0.646l1.159-0.304l-1.137,0.304
		c0-0.025-0.051-0.171-0.151-0.437c-0.102-0.266-0.266-0.576-0.492-0.932c-0.228-0.354-0.525-0.735-0.892-1.14
		s-0.827-0.761-1.383-1.064V236.302z M419.379,228.661c0,0.33,0.006,0.666,0.02,1.008c0.012,0.342,0.107,0.709,0.284,1.103
		c0.178,0.393,0.469,0.798,0.875,1.216c0.405,0.418,0.988,0.869,1.749,1.35l-0.038-8.63c-0.508,0.228-0.938,0.513-1.293,0.855
		c-0.355,0.342-0.646,0.691-0.874,1.045c-0.229,0.355-0.399,0.716-0.514,1.083C419.474,228.059,419.404,228.382,419.379,228.661z
		 M424.549,248.277c0.685,0.102,1.394,0.114,2.129,0.038v-10.493c-0.153-0.05-0.294-0.114-0.422-0.19
		c-0.127-0.076-0.268-0.139-0.421-0.19c-0.204-0.101-0.414-0.19-0.632-0.266c-0.218-0.076-0.44-0.165-0.67-0.266L424.549,248.277z
		 M426.678,224.137c-0.127-0.025-0.26-0.044-0.398-0.057c-0.14-0.013-0.273-0.019-0.399-0.019c-0.254-0.025-0.488-0.032-0.703-0.019
		c-0.216,0.013-0.425,0.032-0.628,0.057v10.378c0.127,0.051,0.247,0.108,0.361,0.171c0.114,0.063,0.234,0.121,0.361,0.171
		c0.229,0.102,0.456,0.197,0.685,0.285c0.228,0.089,0.469,0.184,0.722,0.285V224.137z M430.888,246.643
		c0.868-0.785,1.303-1.863,1.303-3.231c0.025-1.267-0.234-2.23-0.779-2.889c-0.545-0.659-1.375-1.241-2.49-1.749l-0.026,9.048
		c0.409-0.177,0.772-0.367,1.092-0.57C430.307,247.048,430.606,246.846,430.888,246.643z"/>
	<path class="st0" d="M500.886,221.856l-13.191,28.55h-2.471l-5.589-12.203l-5.588,12.203h-2.472l-13.153-28.55h2.395l11.976,25.813
		l5.626-12.165l-6.272-13.648h2.434l5.056,10.911l5.057-10.911h2.471l-6.234,13.648l5.512,12.165l11.976-25.813H500.886z
		 M472.868,239.001c-0.432,0-0.793-0.139-1.084-0.418c-0.291-0.278-0.437-0.621-0.437-1.026c0-0.431,0.146-0.792,0.437-1.083
		c0.291-0.291,0.652-0.437,1.084-0.437c0.431,0,0.785,0.146,1.064,0.437c0.278,0.292,0.418,0.653,0.418,1.083
		c0,0.406-0.14,0.748-0.418,1.026C473.653,238.862,473.299,239.001,472.868,239.001z M484.957,237.557
		c0-0.431,0.152-0.792,0.456-1.083c0.305-0.291,0.646-0.437,1.026-0.437c0.431,0,0.792,0.146,1.084,0.437
		c0.291,0.292,0.438,0.653,0.438,1.083c0,0.406-0.146,0.748-0.438,1.026c-0.292,0.279-0.653,0.418-1.084,0.418
		c-0.38,0-0.722-0.139-1.026-0.418C485.109,238.305,484.957,237.962,484.957,237.557z"/>
	<path class="st0" d="M539.567,221.628c2.005,0,3.889,0.38,5.652,1.141c1.764,0.76,3.305,1.8,4.625,3.117
		c1.319,1.318,2.36,2.858,3.121,4.619c0.762,1.762,1.143,3.644,1.143,5.645c0,2.002-0.381,3.884-1.143,5.646
		c-0.761,1.762-1.802,3.302-3.121,4.619c-1.32,1.318-2.861,2.357-4.625,3.117s-3.647,1.141-5.652,1.141
		c-2.006,0-3.89-0.38-5.653-1.141s-3.305-1.799-4.625-3.117c-1.32-1.317-2.36-2.857-3.121-4.619
		c-0.762-1.761-1.142-3.643-1.142-5.646c0-2.001,0.38-3.883,1.142-5.645c0.761-1.761,1.801-3.301,3.121-4.619
		c1.32-1.317,2.861-2.357,4.625-3.117C535.678,222.008,537.562,221.628,539.567,221.628z M527.269,236.15
		c0,1.597,0.291,3.112,0.872,4.543c0.581,1.432,1.376,2.693,2.387,3.783c1.01,1.09,2.197,1.983,3.562,2.68
		c1.363,0.697,2.828,1.122,4.395,1.273v-4.182c-0.988-0.126-1.914-0.431-2.774-0.913c-0.862-0.481-1.61-1.083-2.243-1.806
		c-0.634-0.722-1.135-1.54-1.502-2.452c-0.367-0.912-0.551-1.888-0.551-2.927c0-1.039,0.184-2.021,0.551-2.946
		c0.367-0.925,0.868-1.749,1.502-2.471c0.633-0.723,1.381-1.318,2.243-1.787c0.86-0.468,1.786-0.766,2.774-0.893v-4.182
		c-1.566,0.152-3.031,0.577-4.395,1.274c-1.364,0.697-2.552,1.591-3.562,2.68c-1.011,1.09-1.806,2.351-2.387,3.782
		C527.56,233.039,527.269,234.553,527.269,236.15z M539.567,242.119c0.833,0,1.61-0.158,2.33-0.475s1.352-0.748,1.895-1.292
		s0.973-1.179,1.289-1.901c0.315-0.722,0.474-1.489,0.474-2.3c0-0.836-0.158-1.616-0.474-2.338
		c-0.316-0.722-0.746-1.355-1.289-1.901c-0.543-0.544-1.175-0.975-1.895-1.292c-0.72-0.316-1.497-0.475-2.33-0.475
		c-0.809,0-1.573,0.159-2.293,0.475c-0.72,0.317-1.346,0.748-1.876,1.292c-0.53,0.545-0.953,1.179-1.27,1.901
		c-0.315,0.722-0.474,1.502-0.474,2.338c0,0.812,0.158,1.578,0.474,2.3c0.316,0.722,0.739,1.356,1.27,1.901s1.156,0.976,1.876,1.292
		S538.759,242.119,539.567,242.119z M539.548,234.667c0.431,0,0.785,0.14,1.064,0.418c0.279,0.279,0.419,0.634,0.419,1.064
		c0,0.406-0.14,0.754-0.419,1.046s-0.634,0.437-1.064,0.437c-0.405,0-0.754-0.146-1.045-0.437c-0.292-0.292-0.438-0.64-0.438-1.046
		c0-0.431,0.146-0.785,0.438-1.064C538.794,234.807,539.143,234.667,539.548,234.667z M540.727,248.429
		c1.565-0.152,3.024-0.576,4.376-1.273c1.351-0.697,2.532-1.59,3.542-2.68c1.011-1.089,1.8-2.351,2.368-3.783
		c0.568-1.431,0.853-2.946,0.853-4.543s-0.284-3.111-0.853-4.543c-0.568-1.431-1.357-2.692-2.368-3.782
		c-1.01-1.089-2.191-1.983-3.542-2.68c-1.352-0.697-2.811-1.122-4.376-1.274v4.182c0.988,0.127,1.913,0.425,2.775,0.893
		c0.861,0.469,1.609,1.064,2.243,1.787c0.633,0.722,1.134,1.546,1.501,2.471c0.367,0.926,0.552,1.908,0.552,2.946
		c0,1.04-0.185,2.015-0.552,2.927c-0.367,0.913-0.868,1.73-1.501,2.452c-0.634,0.723-1.382,1.325-2.243,1.806
		c-0.862,0.482-1.787,0.786-2.775,0.913V248.429z"/>
	<path class="st0" d="M598.663,248.163v2.243h-20.11v-28.55h2.243v26.307h2.205v-26.307h2.242v26.307H598.663z"/>
	<path class="st0" d="M636.205,221.894c1.948,0,3.783,0.374,5.504,1.122c1.722,0.748,3.228,1.768,4.518,3.06
		c1.291,1.292,2.31,2.801,3.057,4.524c0.746,1.724,1.119,3.574,1.119,5.55c0,1.952-0.373,3.796-1.119,5.532
		c-0.747,1.736-1.766,3.25-3.057,4.543c-1.29,1.292-2.796,2.313-4.518,3.06c-1.721,0.748-3.556,1.122-5.504,1.122h-11.501v-28.512
		H636.205z M626.946,225.733v20.909l10.455-10.455L626.946,225.733z M645.265,228.319c-1.09-1.292-2.414-2.312-3.973-3.061
		c-1.559-0.747-3.251-1.122-5.075-1.122h-7.642l10.455,10.455L645.265,228.319z M636.217,248.163c1.824,0,3.51-0.374,5.056-1.121
		s2.864-1.755,3.954-3.022l-6.196-6.197l-10.379,10.34H636.217z M631.318,237.671c-0.38,0-0.723-0.137-1.026-0.413
		c-0.304-0.275-0.456-0.625-0.456-1.051s0.152-0.782,0.456-1.07s0.646-0.432,1.026-0.432c0.431,0,0.792,0.144,1.084,0.432
		c0.291,0.288,0.437,0.645,0.437,1.07s-0.146,0.776-0.437,1.051C632.11,237.534,631.749,237.671,631.318,237.671z M648.16,236.15
		c0-1.089-0.143-2.135-0.427-3.136c-0.285-1.001-0.686-1.932-1.202-2.794l-5.931,5.968l5.931,5.931
		c0.517-0.887,0.917-1.831,1.202-2.832C648.018,238.286,648.16,237.24,648.16,236.15z"/>
	<path class="st0" d="M687.431,236.302c0.78,0.33,1.504,0.684,2.171,1.064c0.667,0.38,1.246,0.843,1.736,1.388
		c0.491,0.545,0.881,1.197,1.171,1.958c0.289,0.76,0.435,1.673,0.435,2.737c-0.051,2.028-0.73,3.663-2.04,4.904
		c-0.756,0.634-1.663,1.172-2.721,1.616c-1.058,0.443-2.241,0.665-3.551,0.665c-0.604,0-1.222-0.038-1.852-0.114
		c-1.386-0.152-2.566-0.532-3.542-1.141s-1.774-1.254-2.396-1.939c-0.621-0.684-1.083-1.298-1.387-1.844
		c-0.305-0.545-0.47-0.842-0.494-0.894l2.091-0.836c0.024,0.025,0.113,0.177,0.266,0.456c0.152,0.279,0.38,0.615,0.685,1.007
		c0.304,0.393,0.685,0.798,1.141,1.216c0.456,0.418,1.013,0.78,1.673,1.083v-11.747c-1.124-0.557-2.03-1.121-2.72-1.691
		s-1.226-1.16-1.608-1.768c-0.383-0.608-0.632-1.229-0.746-1.863c-0.115-0.633-0.16-1.305-0.135-2.015
		c0.025-0.836,0.228-1.666,0.607-2.49c0.379-0.823,0.936-1.559,1.669-2.205c0.733-0.646,1.644-1.16,2.731-1.54
		c1.087-0.38,2.364-0.544,3.831-0.494c1.239,0.025,2.333,0.26,3.281,0.703c0.947,0.444,1.751,0.976,2.409,1.597
		s1.184,1.268,1.577,1.938c0.393,0.672,0.665,1.261,0.817,1.768l-2.205,0.646l1.159-0.304l-1.137,0.304
		c0-0.025-0.051-0.171-0.151-0.437c-0.102-0.266-0.266-0.576-0.492-0.932c-0.228-0.354-0.525-0.735-0.892-1.14
		s-0.827-0.761-1.383-1.064V236.302z M677.889,228.661c0,0.33,0.006,0.666,0.02,1.008c0.012,0.342,0.107,0.709,0.284,1.103
		c0.178,0.393,0.469,0.798,0.875,1.216c0.405,0.418,0.988,0.869,1.749,1.35l-0.038-8.63c-0.508,0.228-0.938,0.513-1.293,0.855
		c-0.355,0.342-0.646,0.691-0.874,1.045c-0.229,0.355-0.399,0.716-0.514,1.083C677.983,228.059,677.914,228.382,677.889,228.661z
		 M683.059,248.277c0.685,0.102,1.394,0.114,2.129,0.038v-10.493c-0.153-0.05-0.294-0.114-0.422-0.19
		c-0.127-0.076-0.268-0.139-0.421-0.19c-0.204-0.101-0.414-0.19-0.632-0.266c-0.218-0.076-0.44-0.165-0.67-0.266L683.059,248.277z
		 M685.188,224.137c-0.127-0.025-0.26-0.044-0.398-0.057c-0.14-0.013-0.273-0.019-0.399-0.019c-0.254-0.025-0.488-0.032-0.703-0.019
		c-0.216,0.013-0.425,0.032-0.628,0.057v10.378c0.127,0.051,0.247,0.108,0.361,0.171c0.114,0.063,0.234,0.121,0.361,0.171
		c0.229,0.102,0.456,0.197,0.685,0.285c0.228,0.089,0.469,0.184,0.722,0.285V224.137z M689.397,246.643
		c0.868-0.785,1.303-1.863,1.303-3.231c0.025-1.267-0.234-2.23-0.779-2.889c-0.545-0.659-1.375-1.241-2.49-1.749l-0.026,9.048
		c0.409-0.177,0.772-0.367,1.092-0.57C688.816,247.048,689.116,246.846,689.397,246.643z"/>
</g>
</svg>
