<?xml version="1.0" encoding="utf-8"?>
<!-- Generator: Adobe Illustrator 19.0.0, SVG Export Plug-In . SVG Version: 6.00 Build 0)  -->
<svg version="1.1" id="Logo_container" xmlns="http://www.w3.org/2000/svg" xmlns:xlink="http://www.w3.org/1999/xlink" x="0px"
	 y="0px" viewBox="20 -220 1000 1000" style="enable-background:new 20 -220 1000 1000;" xml:space="preserve">
<style type="text/css">
	.st0{fill:#F7C050;}
</style>
<g>
	<path class="st0" d="M649.7,375.7H390.3V116.3h259.4L649.7,375.7z M399.3,366.7h241.4V125.3H399.3L399.3,366.7z"/>
	<path class="st0" d="M634.1,360.1H405.9V131.9h228.2V360.1z M414.9,351.1h210.2V140.9H414.9L414.9,351.1z"/>
	<polygon class="st0" points="361.1,201.5 316.3,201.5 316.3,42.3 475.6,42.3 475.6,87.1 376.2,87.1 350.1,61 442,61 442,70 
		371.8,70 379.9,78.1 466.6,78.1 466.6,51.3 325.3,51.3 325.3,192.5 352.1,192.5 352.1,105.8 344,97.7 344,167.9 335,167.9 335,76 
		361.1,102.1 	"/>
	
		<rect x="343.9" y="35.3" transform="matrix(-0.7071 0.7071 -0.7071 -0.7071 647.2723 -119.4691)" class="st0" width="9" height="78.1"/>
	<rect x="371.5" y="102" class="st0" width="9" height="32.3"/>
	<rect x="376" y="97.5" class="st0" width="32.3" height="9"/>
	<polygon class="st0" points="475.6,449.7 316.3,449.7 316.3,445.2 316.3,290.5 361.1,290.5 361.1,389.9 335,416 335,324.1 
		344,324.1 344,394.3 352.1,386.2 352.1,299.5 325.3,299.5 325.3,440.7 466.6,440.7 466.6,413.9 379.9,413.9 371.8,422 442,422 
		442,431 350.1,431 376.2,404.9 475.6,404.9 	"/>
	
		<rect x="309.3" y="413.1" transform="matrix(-0.7071 0.7072 -0.7072 -0.7071 890.0036 466.5832)" class="st0" width="78.1" height="9"/>
	<rect x="371.5" y="357.8" class="st0" width="9" height="32.3"/>
	<rect x="376" y="385.5" class="st0" width="32.3" height="9"/>
	<polygon class="st0" points="723.7,201.5 678.9,201.5 678.9,102.1 705,76 705,167.9 696,167.9 696,97.7 687.9,105.8 687.9,192.5 
		714.7,192.5 714.7,51.3 573.4,51.3 573.4,78.1 660.1,78.1 668.2,70 598,70 598,61 689.9,61 663.8,87.1 564.4,87.1 564.4,42.3 
		723.7,42.3 723.7,46.8 	"/>
	
		<rect x="652.7" y="69.9" transform="matrix(-0.7072 0.7071 -0.7071 -0.7072 1233.4523 -362.1384)" class="st0" width="78.1" height="9"/>
	<rect x="659.5" y="102" class="st0" width="9" height="32.3"/>
	<rect x="631.8" y="97.5" class="st0" width="32.3" height="9"/>
	<polygon class="st0" points="723.7,449.7 564.4,449.7 564.4,404.9 663.8,404.9 689.9,431 598,431 598,422 668.2,422 660.1,413.9 
		573.4,413.9 573.4,440.7 714.7,440.7 714.7,299.5 687.9,299.5 687.9,386.2 696,394.3 696,324.1 705,324.1 705,416 678.9,389.9 
		678.9,290.5 723.7,290.5 	"/>
	
		<rect x="687.1" y="378.6" transform="matrix(-0.7071 0.7071 -0.7071 -0.7071 1475.9932 223.9847)" class="st0" width="9" height="78.1"/>
	<rect x="659.5" y="357.8" class="st0" width="9" height="32.3"/>
	<rect x="631.8" y="385.5" class="st0" width="32.3" height="9"/>
	<rect x="515.5" y="46.8" class="st0" width="9" height="55.2"/>
	<rect x="490.2" y="97.5" class="st0" width="59.5" height="9"/>
	<rect x="515.5" y="390" class="st0" width="9" height="55.2"/>
	<rect x="490.2" y="385.5" class="st0" width="59.5" height="9"/>
	<rect x="320.8" y="241.5" class="st0" width="55.2" height="9"/>
	<rect x="371.5" y="216.2" class="st0" width="9" height="59.5"/>
	<rect x="664" y="241.5" class="st0" width="55.2" height="9"/>
	<rect x="659.5" y="216.2" class="st0" width="9" height="59.5"/>
	<path class="st0" d="M360.8,233.5h-44.4v-24.3h44.4V233.5z M325.4,224.5h26.4v-6.3h-26.4V224.5z"/>
	<path class="st0" d="M360.8,282.8h-44.4v-24.3h44.4V282.8z M325.4,273.8h26.4v-6.3h-26.4V273.8z"/>
	<path class="st0" d="M723.7,233.5h-44.4v-24.3h44.4V233.5z M688.3,224.5h26.4v-6.3h-26.4V224.5z"/>
	<path class="st0" d="M723.7,282.8h-44.4v-24.3h44.4V282.8z M688.3,273.8h26.4v-6.3h-26.4V273.8z"/>
	<path class="st0" d="M507.5,449.7h-24.3v-44.4h24.3V449.7z M492.2,440.7h6.3v-26.4h-6.3V440.7z"/>
	<path class="st0" d="M556.8,449.7h-24.3v-44.4h24.3V449.7z M541.5,440.7h6.3v-26.4h-6.3V440.7z"/>
	<path class="st0" d="M507.5,86.7h-24.3V42.3h24.3V86.7z M492.2,77.7h6.3V51.3h-6.3V77.7z"/>
	<path class="st0" d="M556.8,86.7h-24.3V42.3h24.3V86.7z M541.5,77.7h6.3V51.3h-6.3V77.7z"/>
	<g>
		<path class="st0" d="M576.6,310.2l-17-17c-5.3,4.6-11.4,8.2-18.2,10.7c-6.8,2.6-13.9,3.9-21.4,3.9c-8.4,0-16.4-1.6-23.8-4.8
			s-13.9-7.6-19.5-13.2c-5.6-5.6-9.9-12.1-13.2-19.5c-3.2-7.4-4.8-15.4-4.8-23.8c0-8.3,1.6-16.2,4.8-23.7
			c3.2-7.4,7.6-13.9,13.2-19.4s12.1-9.9,19.5-13.1s15.4-4.8,23.8-4.8c8.3,0,16.3,1.6,23.7,4.8c7.5,3.2,14.1,7.8,19.9,13.8l-6.7,6.6
			c-4.9-5.1-10.5-9-16.8-11.7s-13-4-20.1-4c-6.4,0-12.4,1-18,3.1s-10.6,5-15.1,8.7l35.1,34.9h58.9v4.7c0,7.7-1.3,15-3.8,21.7
			c-2.6,6.8-6.1,12.8-10.6,18l17,17.2L576.6,310.2z M480,213.5c-3.1,3.9-5.7,8.2-7.7,12.9c-2,4.8-3.3,9.8-3.9,15.2l39.6,0.2
			L480,213.5z M519.9,298.4c6.3,0,12.2-1,17.8-3.1c5.6-2.1,10.6-5,15.1-8.7l-35-35.3h-49.4c0.5,6.6,2.2,12.8,5.1,18.5
			s6.6,10.7,11.2,15s9.9,7.6,16,10C506.8,297.2,513.2,298.4,519.9,298.4z M531.5,251.2l28.2,28.4c6.7-8,10.6-17.5,11.6-28.4H531.5z"
			/>
	</g>
	<g>
		<path class="st0" d="M320.7,499.4h-5.4v-4.9h15.8v4.9h-5.4V518h-5.1v-18.6H320.7z"/>
		<path class="st0" d="M347.8,494.5h5.1v9.3h6.6v-9.3h5.1V518h-5.1v-9.6h-6.6v9.6h-5.1V494.5z"/>
		<path class="st0" d="M382.3,494.5h14.6v4.9h-9.5v3.4h9.1v4.9h-9.1v5.5h9.7v5h-14.7v-23.7H382.3z"/>
		<path class="st0" d="M447,508.9v-4.5h12c0,0,0.1,0.7,0.1,1.9c0,6.7-5.1,12.2-12.1,12.2c-6.7,0-12.1-5.5-12.1-12.2
			c0-6.8,5.4-12.2,12.1-12.2c4.1,0,7.4,2,9.7,4.9l-4.1,3.2c-1.2-1.8-3.3-3.1-5.5-3.1c-3.7,0-6.8,3.3-6.8,7.3s3.1,7.2,6.8,7.2
			c4,0,5.9-2.4,6.3-4.6H447V508.9z"/>
		<path class="st0" d="M489.8,509.4c2.7,2,3.3,4.4,3.3,6.8v1.8H488v-1.8c0-2.5-1.7-4.5-4.2-4.5h-3.1v6.4h-5.1v-23.6h8.7
			c4.8,0,8.7,3.9,8.7,8.7C493.1,506.3,491.6,508,489.8,509.4z M483.9,499.1h-3.2v8.1h3.2c2.2,0,4-1.8,4-4
			C488,500.9,486.1,499.1,483.9,499.1z"/>
		<path class="st0" d="M510.3,494.5h5.1V518h-5.1V494.5z"/>
		<path class="st0" d="M542.3,503.7c3.9,0,7.1,3.2,7.1,7.1c0,3.9-3.2,7.2-7.1,7.2H533v-5h8.8c1.3,0,2.4-0.9,2.4-2.3
			s-1.1-2.3-2.4-2.3h-3c-3.9,0-6.9-3.3-6.9-7.1s3.1-7,6.9-7h7.9v4.8h-7.5c-1.2,0-2.2,1-2.2,2.2s1,2.2,2.2,2.2h3.1V503.7z"/>
		<path class="st0" d="M579,518.5l-3.1-6.1l-3.1,6.1l-10.3-24h5.3l5.6,13.3l0.5-0.9l-5.1-12.4h5.3l5,12.3l5-12.3h5.3L579,518.5z"/>
		<path class="st0" d="M614.5,494.1c6.7,0,12.1,5.5,12.1,12.2s-5.4,12.2-12.1,12.2c-6.7,0-12.1-5.5-12.1-12.2
			C602.4,499.5,607.8,494.1,614.5,494.1z M614.5,513.5c3.7,0,6.8-3.3,6.8-7.2c0-4-3.1-7.3-6.8-7.3s-6.8,3.3-6.8,7.3
			S610.8,513.5,614.5,513.5z"/>
		<path class="st0" d="M643.1,494.5h5.1v18.9h8.9v4.7h-13.9L643.1,494.5L643.1,494.5z"/>
		<path class="st0" d="M673.6,494.5h8.6c6.4,0,11.5,5.3,11.5,11.8s-4.9,11.8-11.5,11.8h-8.6V494.5z M681.8,513.4
			c3.9,0,6.7-3.2,6.7-7.1s-2.8-7.1-6.7-7.1h-3.1v14.3h3.1V513.4z"/>
		<path class="st0" d="M719.3,503.7c3.9,0,7.1,3.2,7.1,7.1c0,3.9-3.2,7.2-7.1,7.2H710v-5h8.8c1.3,0,2.4-0.9,2.4-2.3
			s-1.1-2.3-2.4-2.3h-3c-3.9,0-6.9-3.3-6.9-7.1s3.1-7,6.9-7h7.9v4.8h-7.5c-1.2,0-2.2,1-2.2,2.2s1,2.2,2.2,2.2h3.1V503.7z"/>
	</g>
</g>
</svg>
