<?xml version="1.0" encoding="utf-8"?>
<!-- Generator: Adobe Illustrator 20.1.0, SVG Export Plug-In . SVG Version: 6.00 Build 0)  -->
<!DOCTYPE svg PUBLIC "-//W3C//DTD SVG 1.1//EN" "http://www.w3.org/Graphics/SVG/1.1/DTD/svg11.dtd">
<svg version="1.1" id="Logo_container" xmlns="http://www.w3.org/2000/svg" xmlns:xlink="http://www.w3.org/1999/xlink" x="0px"
	 y="0px" viewBox="0 0 1000 1000" style="enable-background:new 0 0 1000 1000;" xml:space="preserve">
<style type="text/css">
	.st0{fill:#FFFFFF;}
</style>
<g>
	<path class="st0" d="M629.7,595.7H370.3l0-259.4l259.4,0L629.7,595.7z M379.3,586.7h241.4l0-241.4l-241.4,0L379.3,586.7z"/>
	<path class="st0" d="M614.1,580.1H385.9l0-228.2l228.2,0V580.1z M394.9,571.1h210.2V360.9l-210.2,0L394.9,571.1z"/>
	<polygon class="st0" points="341.1,421.5 296.3,421.5 296.3,262.3 455.6,262.3 455.6,307.1 356.2,307.1 330.1,281 422,281 422,290 
		351.8,290 359.9,298.1 446.6,298.1 446.6,271.3 305.3,271.3 305.3,412.5 332.1,412.5 332.1,325.8 324,317.7 324,387.9 315,387.9 
		315,296 341.1,322.1 	"/>
	
		<rect x="323.9" y="255.3" transform="matrix(0.7071 -0.7071 0.7071 0.7071 -111.9675 318.3967)" class="st0" width="9" height="78.1"/>
	<rect x="351.5" y="322" class="st0" width="9" height="32.3"/>
	<rect x="356" y="317.5" class="st0" width="32.3" height="9"/>
	<polygon class="st0" points="455.6,669.7 296.3,669.7 296.3,665.2 296.3,510.5 341.1,510.5 341.1,609.9 315,636 315,544.1 
		324,544.1 324,614.3 332.1,606.2 332.1,519.5 305.3,519.5 305.3,660.7 446.6,660.7 446.6,633.9 359.9,633.9 351.8,642 422,642 
		422,651 330.1,651 356.2,624.9 455.6,624.9 	"/>
	
		<rect x="289.3" y="633.1" transform="matrix(0.7071 -0.7072 0.7072 0.7071 -354.7274 418.998)" class="st0" width="78.1" height="9"/>
	<rect x="351.5" y="577.8" class="st0" width="9" height="32.3"/>
	<rect x="356" y="605.5" class="st0" width="32.3" height="9"/>
	<polygon class="st0" points="703.7,421.5 658.9,421.5 658.9,322.1 685,296 685,387.9 676,387.9 676,317.7 667.9,325.8 667.9,412.5 
		694.7,412.5 694.7,271.3 553.4,271.3 553.4,298.1 640.1,298.1 648.2,290 578,290 578,281 669.9,281 643.8,307.1 544.4,307.1 
		544.4,262.3 703.7,262.3 703.7,266.8 	"/>
	
		<rect x="632.6" y="289.9" transform="matrix(0.7072 -0.7071 0.7071 0.7072 -11.4411 561.0856)" class="st0" width="78.1" height="9"/>
	<rect x="639.5" y="322" class="st0" width="9" height="32.3"/>
	<rect x="611.8" y="317.5" class="st0" width="32.3" height="9"/>
	<polygon class="st0" points="703.7,669.7 544.4,669.7 544.4,624.9 643.8,624.9 669.9,651 578,651 578,642 648.2,642 640.1,633.9 
		553.4,633.9 553.4,660.7 694.7,660.7 694.7,519.5 667.9,519.5 667.9,606.2 676,614.3 676,544.1 685,544.1 685,636 658.9,609.9 
		658.9,510.5 703.7,510.5 	"/>
	
		<rect x="667.1" y="598.6" transform="matrix(0.7071 -0.7071 0.7071 0.7071 -254.1628 661.6866)" class="st0" width="9" height="78.1"/>
	<rect x="639.5" y="577.8" class="st0" width="9" height="32.3"/>
	<rect x="611.8" y="605.5" class="st0" width="32.3" height="9"/>
	<rect x="495.5" y="266.8" class="st0" width="9" height="55.2"/>
	<rect x="470.2" y="317.5" class="st0" width="59.5" height="9"/>
	<rect x="495.5" y="610" class="st0" width="9" height="55.2"/>
	<rect x="470.2" y="605.5" class="st0" width="59.5" height="9"/>
	<rect x="300.8" y="461.5" class="st0" width="55.2" height="9"/>
	<rect x="351.5" y="436.2" class="st0" width="9" height="59.5"/>
	<rect x="644" y="461.5" class="st0" width="55.2" height="9"/>
	<rect x="639.5" y="436.2" class="st0" width="9" height="59.5"/>
	<path class="st0" d="M340.8,453.5h-44.4v-24.3h44.4V453.5z M305.4,444.5h26.4v-6.3h-26.4V444.5z"/>
	<path class="st0" d="M340.8,502.8h-44.4v-24.3h44.4V502.8z M305.4,493.8h26.4v-6.3h-26.4V493.8z"/>
	<path class="st0" d="M703.7,453.5h-44.4v-24.3h44.4V453.5z M668.3,444.5h26.4v-6.3h-26.4V444.5z"/>
	<path class="st0" d="M703.7,502.8h-44.4v-24.3h44.4V502.8z M668.3,493.8h26.4v-6.3h-26.4V493.8z"/>
	<path class="st0" d="M487.5,669.7h-24.3v-44.4h24.3V669.7z M472.2,660.7h6.3v-26.4h-6.3V660.7z"/>
	<path class="st0" d="M536.8,669.7h-24.3v-44.4h24.3V669.7z M521.5,660.7h6.3v-26.4h-6.3V660.7z"/>
	<path class="st0" d="M487.5,306.7h-24.3v-44.4h24.3V306.7z M472.2,297.7h6.3v-26.4h-6.3V297.7z"/>
	<path class="st0" d="M536.8,306.7h-24.3v-44.4h24.3V306.7z M521.5,297.7h6.3v-26.4h-6.3V297.7z"/>
	<g>
		<path class="st0" d="M556.6,530.2l-17-17c-5.3,4.6-11.4,8.2-18.2,10.7c-6.8,2.6-13.9,3.9-21.4,3.9c-8.4,0-16.4-1.6-23.8-4.8
			c-7.4-3.2-13.9-7.6-19.5-13.2c-5.6-5.6-9.9-12.1-13.2-19.5c-3.2-7.4-4.8-15.4-4.8-23.8c0-8.3,1.6-16.2,4.8-23.7
			c3.2-7.4,7.6-13.9,13.2-19.4c5.6-5.5,12.1-9.9,19.5-13.1c7.4-3.2,15.4-4.8,23.8-4.8c8.3,0,16.3,1.6,23.7,4.8
			c7.5,3.2,14.1,7.8,19.9,13.8l-6.7,6.6c-4.9-5.1-10.5-9-16.8-11.7c-6.3-2.7-13-4-20.1-4c-6.4,0-12.4,1-18,3.1
			c-5.6,2.1-10.6,5-15.1,8.7l35.1,34.9h58.9v4.7c0,7.7-1.3,15-3.8,21.7c-2.6,6.8-6.1,12.8-10.6,18l17,17.2L556.6,530.2z M460,433.5
			c-3.1,3.9-5.7,8.2-7.7,12.9c-2,4.8-3.3,9.8-3.9,15.2l39.6,0.2L460,433.5z M499.9,518.4c6.3,0,12.2-1,17.8-3.1
			c5.6-2.1,10.6-5,15.1-8.7l-35-35.3h-49.4c0.5,6.6,2.2,12.8,5.1,18.5c2.9,5.7,6.6,10.7,11.2,15c4.6,4.3,9.9,7.6,16,10
			C486.8,517.2,493.2,518.4,499.9,518.4z M511.5,471.2l28.2,28.4c6.7-8,10.6-17.5,11.6-28.4H511.5z"/>
	</g>
	<g>
		<path class="st0" d="M300.7,719.4h-5.4v-4.9h15.8v4.9h-5.4V738h-5.1V719.4z"/>
		<path class="st0" d="M327.8,714.5h5.1v9.3h6.6v-9.3h5.1V738h-5.1v-9.6h-6.6v9.6h-5.1V714.5z"/>
		<path class="st0" d="M362.3,714.5h14.6v4.9h-9.5v3.4h9.1v4.9h-9.1v5.5h9.7v5h-14.7V714.5z"/>
		<path class="st0" d="M427,728.9v-4.5h12c0,0,0.1,0.7,0.1,1.9c0,6.7-5.1,12.2-12.1,12.2c-6.7,0-12.1-5.5-12.1-12.2
			c0-6.8,5.4-12.2,12.1-12.2c4.1,0,7.4,2,9.7,4.9l-4.1,3.2c-1.2-1.8-3.3-3.1-5.5-3.1c-3.7,0-6.8,3.3-6.8,7.3c0,4,3.1,7.2,6.8,7.2
			c4,0,5.9-2.4,6.3-4.6H427z"/>
		<path class="st0" d="M469.8,729.4c2.7,2,3.3,4.4,3.3,6.8v1.8h-5.1v-1.8c0-2.5-1.7-4.5-4.2-4.5h-3.1v6.4h-5.1v-23.6h8.7
			c4.8,0,8.7,3.9,8.7,8.7C473.1,726.3,471.6,728,469.8,729.4z M463.9,719.1h-3.2v8.1h3.2c2.2,0,4-1.8,4-4
			C468,720.9,466.1,719.1,463.9,719.1z"/>
		<path class="st0" d="M490.3,714.5h5.1V738h-5.1V714.5z"/>
		<path class="st0" d="M522.3,723.7c3.9,0,7.1,3.2,7.1,7.1c0,3.9-3.2,7.2-7.1,7.2H513v-5h8.8c1.3,0,2.4-0.9,2.4-2.3
			s-1.1-2.3-2.4-2.3h-3c-3.9,0-6.9-3.3-6.9-7.1c0-3.8,3.1-7,6.9-7h7.9v4.8h-7.5c-1.2,0-2.2,1-2.2,2.2c0,1.2,1,2.2,2.2,2.2H522.3z"/>
		<path class="st0" d="M559,738.5l-3.1-6.1l-3.1,6.1l-10.3-24h5.3l5.6,13.3l0.5-0.9l-5.1-12.4h5.3l5,12.3l5-12.3h5.3L559,738.5z"/>
		<path class="st0" d="M594.5,714.1c6.7,0,12.1,5.5,12.1,12.2c0,6.7-5.4,12.2-12.1,12.2c-6.7,0-12.1-5.5-12.1-12.2
			C582.4,719.5,587.8,714.1,594.5,714.1z M594.5,733.5c3.7,0,6.8-3.3,6.8-7.2c0-4-3.1-7.3-6.8-7.3c-3.7,0-6.8,3.3-6.8,7.3
			C587.7,730.3,590.8,733.5,594.5,733.5z"/>
		<path class="st0" d="M623.1,714.5h5.1v18.9h8.9v4.7h-13.9V714.5z"/>
		<path class="st0" d="M653.6,714.5h8.6c6.4,0,11.5,5.3,11.5,11.8s-4.9,11.8-11.5,11.8h-8.6V714.5z M661.8,733.4
			c3.9,0,6.7-3.2,6.7-7.1s-2.8-7.1-6.7-7.1h-3.1v14.3H661.8z"/>
		<path class="st0" d="M699.3,723.7c3.9,0,7.1,3.2,7.1,7.1c0,3.9-3.2,7.2-7.1,7.2H690v-5h8.8c1.3,0,2.4-0.9,2.4-2.3
			s-1.1-2.3-2.4-2.3h-3c-3.9,0-6.9-3.3-6.9-7.1c0-3.8,3.1-7,6.9-7h7.9v4.8h-7.5c-1.2,0-2.2,1-2.2,2.2c0,1.2,1,2.2,2.2,2.2H699.3z"/>
	</g>
</g>
</svg>
