<?xml version="1.0" encoding="utf-8"?>
<!-- Generator: Adobe Illustrator 20.0.0, SVG Export Plug-In . SVG Version: 6.00 Build 0)  -->
<!DOCTYPE svg PUBLIC "-//W3C//DTD SVG 1.1//EN" "http://www.w3.org/Graphics/SVG/1.1/DTD/svg11.dtd">
<svg version="1.1" id="Icons" xmlns="http://www.w3.org/2000/svg" xmlns:xlink="http://www.w3.org/1999/xlink" x="0px" y="0px"
	 viewBox="0 0 145 144" style="enable-background:new 0 0 145 144;" xml:space="preserve">
<style type="text/css">
	.st0{fill:#f7c050;}
</style>
<path class="st0" d="M104.1,35H41.2c-2.2,0-3.9,1.7-3.9,3.9v62.9c0,2.2,1.7,3.9,3.9,3.9h33.8V78.3h-9.2V67.6h9.2v-7.9
	c0-9.1,5.6-14.1,13.7-14.1c3.9,0,7.3,0.3,8.2,0.4v9.5l-5.6,0c-4.4,0-5.3,2.1-5.3,5.2v6.8h10.6l-1.4,10.7h-9.2v27.4h18
	c2.2,0,3.9-1.7,3.9-3.9V38.9C108,36.7,106.3,35,104.1,35z"/>
</svg>
