<?xml version="1.0" encoding="utf-8"?>
<!-- Generator: Adobe Illustrator 20.0.0, SVG Export Plug-In . SVG Version: 6.00 Build 0)  -->
<!DOCTYPE svg PUBLIC "-//W3C//DTD SVG 1.1//EN" "http://www.w3.org/Graphics/SVG/1.1/DTD/svg11.dtd">
<svg version="1.1" id="Icons" xmlns="http://www.w3.org/2000/svg" xmlns:xlink="http://www.w3.org/1999/xlink" x="0px" y="0px"
	 viewBox="0 0 145 144" style="enable-background:new 0 0 145 144;" xml:space="preserve">
<style type="text/css">
	.st0{fill:#f7c050;}
</style>
<path class="st0" d="M55.3,31.4c-21.5,0-39,17.4-39,39s17.4,39,39,39c22.5,0,37.4-15.8,37.4-38.1c0-2.6,0-4.5-0.6-6.5H55.3v13.4
	h22.1C76.6,83.9,70.8,95,55.3,95c-13.3,0-24.2-11-24.2-24.6S42,45.7,55.3,45.7c7.6,0,12.7,3.2,15.5,6l10.6-10.2
	C74.7,35.2,65.9,31.4,55.3,31.4z M116.6,53.6v11.1h-11.2v11.2h11.2V87h11.1V75.9h11.2V64.8h-11.2V53.6H116.6z"/>
</svg>
