<?xml version="1.0" encoding="utf-8"?>
<!-- Generator: Adobe Illustrator 20.0.0, SVG Export Plug-In . SVG Version: 6.00 Build 0)  -->
<!DOCTYPE svg PUBLIC "-//W3C//DTD SVG 1.1//EN" "http://www.w3.org/Graphics/SVG/1.1/DTD/svg11.dtd">
<svg version="1.1" id="Icons" xmlns="http://www.w3.org/2000/svg" xmlns:xlink="http://www.w3.org/1999/xlink" x="0px" y="0px"
	 viewBox="0 0 145 144" style="enable-background:new 0 0 145 144;" xml:space="preserve">
<style type="text/css">
	.st0{fill:#f7c050;}
</style>
<g>
	<path class="st0" d="M72,28.3c10.7,0,11.9,0,16.1,0.2c3.9,0.2,6,0.8,7.4,1.4c1.9,0.7,3.2,1.6,4.6,3c1.4,1.4,2.3,2.7,3,4.6
		c0.5,1.4,1.2,3.5,1.4,7.4c0.2,4.2,0.2,5.5,0.2,16.1s0,11.9-0.2,16.1c-0.2,3.9-0.8,6-1.4,7.4c-0.7,1.9-1.6,3.2-3,4.6
		c-1.4,1.4-2.7,2.3-4.6,3c-1.4,0.5-3.5,1.2-7.4,1.4c-4.2,0.2-5.5,0.2-16.1,0.2s-11.9,0-16.1-0.2c-3.9-0.2-6-0.8-7.4-1.4
		c-1.9-0.7-3.2-1.6-4.6-3c-1.4-1.4-2.3-2.7-3-4.6c-0.5-1.4-1.2-3.5-1.4-7.4c-0.2-4.2-0.2-5.5-0.2-16.1s0-11.9,0.2-16.1
		c0.2-3.9,0.8-6,1.4-7.4c0.7-1.9,1.6-3.2,3-4.6c1.4-1.4,2.7-2.3,4.6-3c1.4-0.5,3.5-1.2,7.4-1.4C60.1,28.3,61.3,28.3,72,28.3
		 M72,21.1c-10.8,0-12.2,0-16.5,0.2c-4.2,0.2-7.2,0.9-9.7,1.9c-2.6,1-4.9,2.4-7.1,4.6c-2.2,2.2-3.6,4.4-4.6,7.1
		c-1,2.5-1.7,5.4-1.9,9.7c-0.2,4.3-0.2,5.6-0.2,16.5c0,10.8,0,12.2,0.2,16.5c0.2,4.2,0.9,7.2,1.9,9.7c1,2.6,2.4,4.9,4.6,7.1
		c2.2,2.2,4.4,3.6,7.1,4.6c2.5,1,5.4,1.7,9.7,1.9c4.3,0.2,5.6,0.2,16.5,0.2s12.2,0,16.5-0.2c4.2-0.2,7.2-0.9,9.7-1.9
		c2.6-1,4.9-2.4,7.1-4.6c2.2-2.2,3.6-4.4,4.6-7.1c1-2.5,1.7-5.4,1.9-9.7c0.2-4.3,0.2-5.6,0.2-16.5s0-12.2-0.2-16.5
		c-0.2-4.2-0.9-7.2-1.9-9.7c-1-2.6-2.4-4.9-4.6-7.1c-2.2-2.2-4.4-3.6-7.1-4.6c-2.5-1-5.4-1.7-9.7-1.9C84.2,21.1,82.8,21.1,72,21.1
		L72,21.1z"/>
	<path class="st0" d="M72,40.5c-11.3,0-20.5,9.2-20.5,20.5S60.7,81.5,72,81.5S92.5,72.3,92.5,61S83.3,40.5,72,40.5z M72,74.3
		c-7.3,0-13.3-6-13.3-13.3c0-7.3,6-13.3,13.3-13.3c7.3,0,13.3,6,13.3,13.3C85.3,68.3,79.3,74.3,72,74.3z"/>
	<circle class="st0" cx="93.3" cy="39.7" r="4.8"/>
</g>
</svg>
