<?xml version="1.0" encoding="utf-8"?>
<!-- Generator: Adobe Illustrator 20.0.0, SVG Export Plug-In . SVG Version: 6.00 Build 0)  -->
<!DOCTYPE svg PUBLIC "-//W3C//DTD SVG 1.1//EN" "http://www.w3.org/Graphics/SVG/1.1/DTD/svg11.dtd">
<svg version="1.1" id="Icons" xmlns="http://www.w3.org/2000/svg" xmlns:xlink="http://www.w3.org/1999/xlink" x="0px" y="0px"
	 viewBox="0 0 145 144" style="enable-background:new 0 0 145 144;" xml:space="preserve">
<style type="text/css">
	.st0{fill:#f7c050;}
</style>
<path class="st0" d="M67.1,79.5l-0.7-24c0-0.7-0.6-1.3-1.3-1.3c-0.7,0-1.3,0.6-1.3,1.3l-0.6,24L63.8,91c0,0.7,0.6,1.3,1.3,1.3
	c0.7,0,1.3-0.6,1.3-1.3l0,0L67.1,79.5L67.1,79.5z"/>
<path class="st0" d="M62.3,79.5l-0.7-24.9c0-0.7-0.6-1.2-1.2-1.2c-0.7,0-1.2,0.5-1.2,1.2l-0.7,24.8l0.7,11.6c0,0.7,0.6,1.2,1.2,1.2
	c0.7,0,1.2-0.5,1.2-1.2l0,0L62.3,79.5L62.3,79.5z"/>
<circle class="st0" cx="71.2" cy="90.9" r="0"/>
<path class="st0" d="M52.1,54.8c0-0.6-0.5-1.1-1.1-1.1s-1,0.4-1.1,1.1l-0.7,24.7L50,91.3c0,0.6,0.5,1,1.1,1s1-0.4,1.1-1.1L53,79.4
	L52.1,54.8L52.1,54.8z"/>
<path class="st0" d="M56.8,54c0-0.6-0.5-1.1-1.1-1.1c-0.6,0-1.1,0.5-1.1,1.1l-0.7,25.5l0.7,11.7c0,0.6,0.5,1.1,1.1,1.1
	c0.6,0,1.1-0.5,1.1-1.1l0.8-11.7L56.8,54L56.8,54z"/>
<path class="st0" d="M33,92c0.4,0,0.6-0.3,0.7-0.7l1.1-11.9l-1.1-12.3c0-0.4-0.3-0.7-0.7-0.7c-0.4,0-0.6,0.3-0.7,0.7l-1,12.3l1,11.9
	C32.3,91.7,32.6,92,33,92L33,92z"/>
<path class="st0" d="M71.8,79.5L71.2,51c0-0.5-0.3-0.9-0.7-1.2c-0.2-0.1-0.5-0.3-0.8-0.3c-0.3,0-0.5,0.1-0.8,0.2
	c-0.4,0.3-0.7,0.7-0.7,1.2v0.3l-0.5,28.2l0.5,11.4v0c0,0.3,0.1,0.6,0.4,0.8c0.3,0.3,0.7,0.5,1.1,0.5c0.4,0,0.7-0.2,1-0.4
	c0.3-0.3,0.4-0.6,0.4-1l0-1.1L71.8,79.5L71.8,79.5z"/>
<path class="st0" d="M38.2,68.1c0-0.4-0.4-0.7-0.7-0.7c-0.4,0-0.7,0.3-0.7,0.7l-0.9,11.4l0.9,12c0,0.4,0.4,0.7,0.7,0.7
	c0.4,0,0.7-0.3,0.7-0.7l1.1-12L38.2,68.1L38.2,68.1z"/>
<path class="st0" d="M41.9,60.1c-0.4,0-0.8,0.4-0.8,0.8l-0.9,18.5l0.9,12c0,0.5,0.4,0.8,0.8,0.8s0.8-0.4,0.8-0.8l0,0l1-12l-1-18.5
	C42.8,60.5,42.4,60.1,41.9,60.1L41.9,60.1z"/>
<path class="st0" d="M47.4,91.4L47.4,91.4l0.9-11.9l-0.9-22.8c0-0.5-0.4-0.9-1-0.9c-0.5,0-0.9,0.4-1,0.9l-0.8,22.8l0.8,11.9
	c0,0.5,0.4,0.9,1,0.9C46.9,92.4,47.3,92,47.4,91.4L47.4,91.4z"/>
<path class="st0" d="M75.3,47.1c-0.2-0.1-0.5-0.2-0.8-0.2c-0.4,0-0.7,0.1-1,0.4C73.2,47.5,73,48,73,48.4v0.2l-0.6,30.9l0.3,5.7
	l0.3,5.6c0,0.8,0.7,1.5,1.5,1.5s1.5-0.7,1.5-1.5l0,0l0.7-11.3L76,48.4C76,47.9,75.7,47.4,75.3,47.1L75.3,47.1z"/>
<path class="st0" d="M19.9,86c0.2,0,0.4-0.2,0.4-0.4l1-6.1l-1-6.2c0-0.3-0.2-0.4-0.4-0.4s-0.4,0.2-0.4,0.4l-0.8,6.2l0.8,6.1
	C19.5,85.9,19.7,86,19.9,86L19.9,86z"/>
<path class="st0" d="M24.1,89.8c0.2,0,0.4-0.2,0.5-0.4l1.3-9.9l-1.3-10.1c0-0.3-0.2-0.4-0.5-0.4c-0.2,0-0.4,0.2-0.5,0.4l-1.1,10.1
	l1.1,9.9C23.7,89.6,23.8,89.8,24.1,89.8L24.1,89.8z"/>
<path class="st0" d="M28.5,91.6c0.3,0,0.5-0.2,0.6-0.6l1.2-11.5l-1.2-12c0-0.3-0.3-0.6-0.6-0.6c-0.3,0-0.5,0.2-0.6,0.6l-1.1,12
	L27.9,91C28,91.3,28.2,91.6,28.5,91.6L28.5,91.6z"/>
<path class="st0" d="M117.1,64.8c-1.9,0-3.7,0.4-5.3,1.1c-1.1-12.4-11.5-22.2-24.2-22.2c-3.1,0-6.1,0.6-8.8,1.7
	c-1.1,0.4-1.3,0.8-1.3,1.6v43.8c0,0.8,0.7,1.5,1.5,1.6h38.3c7.6,0,13.8-6.1,13.8-13.7C130.9,71,124.7,64.8,117.1,64.8L117.1,64.8z"
	/>
</svg>
